# xmcd
#
# Track frame offsets:
#	150
#	13395
#	31532
#	45021
#	61381
#	78889
#	96920
#	110820
#	123475
#	136645
#	154699
#	166340
#	187972
#	199668
#
# Disc length: 2824 seconds
#
# Revision: 0
# Processed by: cddbd v1.5.2PL0 Copyright (c) Steve Scherf et al.
# Submitted via: MusicManager 7.3.0.0 
#
DISCID=a70b060e
DTITLE=PADDY O'BRIEN - THERE COMES A TIME
DYEAR=2010
DGENRE=country
TTITLE0=ROCK 'N' ROLL YODELLING SONG
TTITLE1=MY BROKEN SOUVENIRS
TTITLE2=RINGSEND ROSE
TTITLE3=HE STOPED LOVING HER TODAY
TTITLE4=COWBOY IN YOUR HEART
TTITLE5=HEAVEN WON'T BE HEAVEN ['TILL YOU'RE THERE ]
TTITLE6=FALLING OUT OF LOVE
TTITLE7=BEFORE THIS DAY ENDS
TTITLE8=I'LL NEVER PASS THIS WAY AGAIN
TTITLE9=JUST WHEN I NEEDED YOU MOST
TTITLE10=YOU MEAN SO MUCH TO ME
TTITLE11=THIS HOUSE
TTITLE12=SHE'S GONE,GONE,GONE
TTITLE13=THINK OF ME { when you're lonely }
EXTD=
EXTT0=
EXTT1=
EXTT2=
EXTT3=
EXTT4=
EXTT5=
EXTT6=
EXTT7=
EXTT8=
EXTT9=
EXTT10=
EXTT11=
EXTT12=
EXTT13=
PLAYORDER=
